# xmcd CD database file
#
# Track frame offsets:
#	150
#	17932
#	33477
#	44895
#	57814
#	69262
#	81727
#	96312
#	109040
#	119705
#	137150
#	143082
#	155550
#	166637
#	177782
#	189472
#	198140
#	211722
#
# Disc length: 2992 seconds
#
# Revision: 0
# Processed by: cddbd v1.5.1PL0 Copyright (c) Steve Scherf et al.
# Submitted via: CDex 1.40Beta9
#
DISCID=020bae12
DTITLE=Gheorghe Zamfir and Friends - The Very Best Panpipe Evergreens
DYEAR=1996
DGENRE=Blues
TTITLE0=Gheorghe Zamfir - Triste Est Le Ciel
TTITLE1=El Zamoona Group - El Condor Pasa
TTITLE2=Gheorghe Zamfir - Pastourelle
TTITLE3=El Zamoona Group - Recuerdos De Calahuayo
TTITLE4=Gheorghe Zamfir - Aurore
TTITLE5=El Zamoona Group - Selvas Virgenes
TTITLE6=Gheorghe Zamfir - Breton Suite
TTITLE7=El Zamoona Group - Vienen Bajando Las Llamitas
TTITLE8=Gheorghe Zamfir - A Mezzu Mare
TTITLE9=El Zamoona Group - Vasija De Barro
TTITLE10=Gheorghe Zamfir - The Dance Of Biquette
TTITLE11=El Zamoona Group - Kacharpari
TTITLE12=Gheorghe Zamfir - Suite Of Pyreness
TTITLE13=El Zamoona Group - Cuequita De Los Coyas
TTITLE14=Gheorghe Zamfir - Folkloriana
TTITLE15=El Zamoona Group - Cantando En Mi Valle
TTITLE16=Gheorghe Zamfir - Briul
TTITLE17=El Zamoona Group - Campamento III
EXTD=YEAR: 1996 ID3G: 0
EXTT0=
EXTT1=
EXTT2=
EXTT3=
EXTT4=
EXTT5=
EXTT6=
EXTT7=
EXTT8=
EXTT9=
EXTT10=
EXTT11=
EXTT12=
EXTT13=
EXTT14=
EXTT15=
EXTT16=
EXTT17=
PLAYORDER=
